<svg xmlns="http://www.w3.org/2000/svg" xmlns:xlink="http://www.w3.org/1999/xlink" style="margin: auto; background: rgb(255, 255, 255) none repeat scroll 0% 0%; display: block; z-index: 1; position: relative; --darkreader-inline-bgcolor:#444647; --darkreader-inline-bgimage:none;" width="3000" height="2000" preserveAspectRatio="xMidYMid" viewBox="0 0 3000 2000" data-darkreader-inline-bgcolor="" data-darkreader-inline-bgimage="">
<g transform=""><g transform="translate(631.5653970117099,409.812453255263) scale(100)" opacity="0.1">
  <path d="M10.185 0 C10.185 2.0999999999999996 10.655134158511533 2.800418015961311 9.743978306364662 4.692452638556391 S7.992089745114065 6.653625065033543 6.350243631931202 7.9629536489368835 S4.45391251631937 10.076551408938162 2.406563900737541 10.543845370246421 S-0.21902709676323218 10.396934746880133 -2.2663757123450616 9.929640785571873 S-5.10119609391934 9.764836066795084 -6.743042207102202 8.455507482891743 S-8.265212067439265 6.31114050550741 -9.176367919586138 4.419105882912331 S-10.815 2.100000000000001 -10.815 1.3244555132778625e-15 S-10.08752377173301 -2.527071260317248 -9.17636791958614 -4.419105882912328 S-8.384888320285066 -7.146178898988401 -6.743042207102205 -8.455507482891742 S-4.313724327926893 -9.462346824263612 -2.2663757123450643 -9.929640785571873 S0.35921528515570866 -11.01113933155468 2.406563900737538 -10.543845370246421 S4.708397518748337 -9.272282232840226 6.3502436319312 -7.962953648936885 S8.832822454217789 -6.584487261151473 9.743978306364662 -4.692452638556393 S10.185 -2.1000000000000023 10.185 -2.4946055298631588e-15" fill="#2d2d2d" stroke-width="0" style="--darkreader-inline-fill:#4e5152;" data-darkreader-inline-fill="">
    <animateTransform attributeName="transform" type="rotate" dur="20s" repeatCount="indefinite" values="0;51.42857142857143"></animateTransform>
  </path>
</g><g transform="translate(457.8784764140519,291.77494390631557) scale(100)" opacity="0.1">
  <path d="M12.222 0 C12.222 2.5199999999999996 12.786160990213842 3.3605016191535735 11.692773967637596 5.630943166267669 S9.590507694136877 7.984350078040252 7.620292358317442 9.55554437872426 S5.344695019583243 12.091861690725793 2.8878766808850487 12.652614444295706 S-0.2628325161158789 12.476321696256159 -2.719650854814074 11.915568942686248 S-6.121435312703208 11.717803280154099 -8.091650648522643 10.146608979470091 S-9.918254480927118 7.573368606608891 -11.011641503503364 5.302927059494796 S-12.978 2.5200000000000014 -12.978 1.589346615933435e-15 S-12.105028526079613 -3.0324855123806977 -11.011641503503366 -5.3029270594947935 S-10.06186598434208 -8.57541467878608 -8.091650648522647 -10.14660897947009 S-5.176469193512272 -11.354816189116335 -2.719650854814077 -11.915568942686248 S0.431058342186851 -13.213367197865617 2.887876680885046 -12.652614444295706 S5.650077022498004 -11.12673867940827 7.620292358317439 -9.555544378724262 S10.599386945061347 -7.901384713381768 11.692773967637594 -5.630943166267672 S12.222 -2.5200000000000027 12.222 -2.99352663583579e-15" fill="#747474" stroke-width="0" style="--darkreader-inline-fill:#81898c;" data-darkreader-inline-fill="">
    <animateTransform attributeName="transform" type="rotate" dur="10s" repeatCount="indefinite" values="0;51.42857142857143"></animateTransform>
  </path>
</g><g transform="translate(41.02986697967276,8.48492146884189) scale(100)" opacity="0.1">
  <path d="M17.1108 0 C17.1108 3.527999999999999 17.900625386299378 4.704702266815003 16.369883554692635 7.883320432774737 S13.42671077179163 11.178090109256352 10.66840930164442 13.377762130213965 S7.482573027416541 16.928606367016112 4.043027353239069 17.71366022201399 S-0.3679655225622307 17.466850374758625 -3.8075111967397035 16.68179651976075 S-8.57000943778449 16.40492459221574 -11.3283109079317 14.205252571258129 S-13.885556273297967 10.60271604925245 -15.416298104904712 7.424097883292716 S-18.1692 3.5280000000000014 -18.1692 2.225085262306809e-15 S-16.94703993651146 -4.245479717332978 -15.416298104904715 -7.4240978832927125 S-14.086612378078913 -12.005580550300513 -11.328310907931705 -14.205252571258125 S-7.247056870917181 -15.89674266476287 -3.807511196739708 -16.68179651976075 S0.6034816790615913 -18.498714077011865 4.043027353239064 -17.71366022201399 S7.910107831497205 -15.577434151171577 10.668409301644415 -13.377762130213966 S14.839141723085886 -11.061938598734475 16.36988355469263 -7.883320432774741 S17.1108 -3.528000000000003 17.1108 -4.190937290170107e-15" fill="#c3c3c3" stroke-width="0" style="--darkreader-inline-fill:#656a6c;" data-darkreader-inline-fill="">
    <animateTransform attributeName="transform" type="rotate" dur="6.666666666666666s" repeatCount="indefinite" values="0;51.42857142857143"></animateTransform>
  </path>
</g></g>
</svg>