<?xml version="1.0" encoding="UTF-8"?>
<svg xmlns="http://www.w3.org/2000/svg" xmlns:xlink="http://www.w3.org/1999/xlink" width="32pt" height="32pt" viewBox="0 0 32 32" version="1.1">
<g id="surface6080565">
<path style=" stroke:none;fill-rule:nonzero;fill:rgb(38.431373%,82.352941%,97.647059%);fill-opacity:1;" d="M 26 0 L 6 0 C 2.6875 0 0 2.6875 0 6 L 0 26 C 0 29.3125 2.6875 32 6 32 L 26 32 C 29.3125 32 32 29.3125 32 26 L 32 6 C 32 2.6875 29.3125 0 26 0 Z M 9.894531 27.164062 L 4.921875 27.164062 L 4.894531 12.277344 L 9.867188 12.277344 Z M 7.285156 10.332031 L 7.253906 10.332031 C 5.628906 10.332031 4.582031 9.210938 4.582031 7.816406 C 4.582031 6.390625 5.664062 5.308594 7.316406 5.308594 C 8.972656 5.308594 9.984375 6.390625 10.019531 7.816406 C 10.019531 9.210938 8.964844 10.332031 7.285156 10.332031 Z M 27.128906 27.164062 L 22.117188 27.164062 L 22.117188 19.078125 C 22.117188 17.121094 21.597656 15.789062 19.847656 15.789062 C 18.507812 15.789062 17.789062 16.6875 17.441406 17.558594 C 17.3125 17.871094 17.277344 18.296875 17.277344 18.734375 L 17.277344 27.164062 L 12.242188 27.164062 L 12.210938 12.277344 L 17.25 12.277344 L 17.277344 14.378906 C 17.921875 13.382812 18.996094 11.976562 21.5625 11.976562 C 24.746094 11.976562 27.125 14.054688 27.125 18.519531 L 27.125 27.164062 Z M 27.128906 27.164062 "/>
</g>
</svg>
